<svg xmlns="http://www.w3.org/2000/svg" fill='currentColor' viewBox="0 0 16 16" xml:space="preserve">
    <path d="M5.08 13.02h5.82c-.01-.05-.02-.09-.03-.12-.06-.18-.12-.35-.18-.53-.35-.96-.55-1.97-.6-3-.07-1.19-.1-2.37-.15-3.56-.01-.27-.02-.54-.04-.82H6.08c0 .05-.01.07-.01.1-.06 1.54-.1 3.1-.2 4.65-.06.95-.27 1.86-.6 2.73-.06.18-.12.36-.19.55zM5.7 3.87h4.6c.48 0 .73-.28.73-.83V.58c0-.06-.01-.12-.01-.2h-.9c-.22 0-.22 0-.22.25v.8h-.95V.39H7.03v1.04h-.95V.38c-.35 0-.68 0-1.01.01-.04 0-.1.09-.1.14-.01.85-.01 1.7 0 2.55.02.55.26.79.73.79zM12.17 14.56c-.12-.28-.33-.42-.6-.42H4.43c-.39 0-.67.34-.66.77.01.41.3.71.7.71h7.04c.23 0 .44-.07.58-.29.16-.24.19-.5.08-.77zM4.94 13.96h5.51c.23 0 .45.01.68-.01.18-.01.29-.17.29-.37 0-.19-.11-.34-.28-.36-.06-.01-.12-.01-.18-.01H5.02c-.06 0-.12 0-.18.01-.16.02-.27.16-.28.34-.02.25.12.4.38.4zM10.29 4.79c.04 0 .08 0 .12-.01.13-.03.24-.12.27-.27.03-.15.01-.3-.11-.39a.547.547 0 0 0-.28-.09c-.77-.01-1.53 0-2.3 0H5.66c-.25 0-.39.17-.37.42.01.22.15.34.38.34h4.62z"/>
</svg>