<svg xmlns="http://www.w3.org/2000/svg" viewBox="0 0 16 16" xml:space="preserve"><path d="M8.1 15.9h-.2C3.54 15.9 0 12.36 0 8S3.54.1 7.9.1h.2C12.46.1 16 3.64 16 8s-3.54 7.9-7.9 7.9z"/><path fill="#FFF" d="M5.79 12.11h4.41c-.01-.04-.02-.07-.02-.1-.05-.15-.09-.29-.14-.43-.27-.79-.42-1.61-.45-2.45-.06-.98-.08-1.95-.12-2.92l-.03-.67h-2.9c0 .04-.01.06-.01.08-.05 1.26-.08 2.54-.15 3.8-.05.78-.2 1.52-.45 2.23-.05.15-.09.3-.14.46zm.47-7.49h3.48c.36 0 .55-.23.55-.68V1.93c0-.05-.01-.1-.01-.16H9.6c-.17 0-.17 0-.17.2v.65h-.71v-.85H7.26v.85h-.72v-.85c-.27 0-.52 0-.77.01-.03 0-.08.07-.08.11-.01.7-.01 1.39 0 2.09.03.44.21.64.57.64zm4.9 8.75c-.09-.23-.25-.34-.45-.34H5.29c-.3 0-.51.28-.5.63.01.34.23.58.53.58h5.33c.17 0 .33-.06.44-.24.13-.2.15-.41.07-.63zm-5.48-.49h4.17c.17 0 .34.01.52-.01.14-.01.22-.14.22-.3 0-.16-.08-.28-.21-.29-.05-.01-.09-.01-.14-.01h-4.5c-.05 0-.09 0-.14.01-.12.02-.2.13-.21.28-.01.19.09.32.29.32zm4.05-7.51c.03 0 .06 0 .09-.01.1-.02.18-.1.2-.22.02-.12.01-.25-.08-.32a.377.377 0 0 0-.21-.07c-.58-.01-1.16 0-1.74 0H6.23c-.19 0-.3.14-.28.34.01.18.11.28.29.28h3.49z"/></svg>