<!-- SVG creado por TorresDev -->
<svg xmlns="http://www.w3.org/2000/svg" width="16" height="16" viewBox="0 0 16 16">
  <g fill="none" stroke="currentColor" stroke-miterlimit="10" stroke-width="1.5">
      <path
          d="M5.71 9.92s-.3-.54-.7-.8a2.352 2.352 0 0 0-1.08-.35c-.14-.01-.64-.05-1.24.19-.2.08-.57.23-.94.6-.07.07-.4.41-.64.97-.32.78-.26 1.48-.24 1.78.03.3.07.67.28 1.08.19.37.43.59.58.73.08.07.44.39 1.03.59.28.09.49.12.81.15.11.01.22.02.36.03.52.02.8 0 1.21-.01.54 0 .46.04 1.17.04.62 0 .8-.04.98-.09.16-.05.45-.14.74-.39.11-.09.46-.41.62-.96.15-.51.16-1.34-.36-1.85-.25-.24-.54-.33-.73-.4-.72-.23-1.02.07-1.35-.19-.26-.2-.06-.36-.47-1.1zM4.31 8.28c.04-.3.24-1.59 1.31-2.52 1-.87 2.09-.86 2.44-.84.36.01 1.77.06 2.74 1.36.11.15 1.02 1.42.68 3.09-.4 2.01-2.2 2.69-2.29 2.72" />
      <path stroke-linecap="round"
          d="M4.12 4.66 2.85 3.08M7.98 3V.89M13.12 3.12l-1.36 1.49M15.24 8.72h-1.92M13.12 14.32l-1.36-1.49" />
  </g>
</svg>