<!-- SVG creado por TorresDev -->
<svg xmlns="http://www.w3.org/2000/svg" width="16" height="16" viewBox="0 0 16 16">
  <path
      d="M2.41 8.91a5.82 5.82 0 0 1-.26-2.55c.18-1.45.87-2.41 1.19-2.84C4.47 1.99 6.51.57 7.22 1.07c.57.4-.39 1.56.09 3.51.47 1.93 2 3.15 2.66 3.69.61.5 1.27 1.03 2.28 1.31 1.56.44 2.6-.08 2.91.44.31.53-.47 1.54-.97 2.19-.16.21-.42.54-.81.91-.25.24-.89.84-1.72 1.25-1.06.52-2.02.53-2.72.55-.66.02-1.2-.05-1.59-.11"
      fill="none" stroke="currentColor" stroke-miterlimit="11" stroke-width="1.5" />
  <path
      d="M5.09 10.36c-.61-1.32-2.92-.9-3.37.51-.29.67-.29 1.52-.03 2.21.58 1.34 2.41 1.22 3.71 1.2.57.04 1.05.08 1.57 0 .73-.14 1.16-.96.99-1.67-.07-.48-.57-.68-.98-.73-.31 0-1.15.08-1.48-.5-.28-.58-.13-.57-.41-1.03zm1.12-.62c.13.24.25.51.32.81.03.15.07.28.02.15-.07-.09-.04-.05-.09-.07 3.07-.43 3.94 3.53 1.29 4.85-.75.34-1.66.26-2.42.23-1.87.12-4.12.04-5.01-2.06-.6-1.62-.25-3.64 1.18-4.74 1.45-1.1 3.83-.91 4.69.82z"
      fill="currentColor" />
</svg>