<svg xmlns="http://www.w3.org/2000/svg" viewBox="0 0 16 16" xml:space="preserve">
    <g fill="#17191E">
      <path d="M5.76 12.77c-.73-.56-.94-1.74-.64-2.59.53.54 1.26.71 2.02.8 1.17.15 2.32.09 3.41-.36.12-.05.24-.12.38-.19.1.25.13.5.09.75-.09.62-.45 1.1-1.04 1.46-.23.15-.48.28-.72.41-.76.45-.96.94-.68 1.66.01.02.01.04.03.08-.38-.14-.66-.35-.87-.62-.22-.29-.33-.61-.33-.95 0-.17 0-.34-.03-.5-.07-.4-.29-.58-.72-.59-.44-.01-.78.22-.87.57-.01.02-.02.04-.03.07zM1.59 10.04s2.16-.88 4.33-.88l1.64-4.25c.06-.21.24-.35.44-.35s.38.14.44.35l1.64 4.25c2.57 0 4.33.88 4.33.88s-3.68-8.4-3.68-8.42c-.11-.25-.28-.41-.52-.41H5.79c-.24 0-.41.16-.52.41-.01.02-3.68 8.42-3.68 8.42z"/>
    </g>
</svg>