<svg xmlns="http://www.w3.org/2000/svg" viewBox="0 0 16 16" xml:space="preserve">
    <path fill="#574596" d="M3.54 2.18c-.87 0-1.51.73-1.48 1.52.03.76-.01 1.75-.27 2.55-.26.81-.7 1.32-1.42 1.38v.74c.72.07 1.16.58 1.42 1.38.26.8.29 1.79.27 2.55-.03.79.61 1.52 1.49 1.52h8.92c.87 0 1.51-.73 1.49-1.52-.03-.76.01-1.75.27-2.55.26-.81.7-1.32 1.41-1.38v-.74c-.72-.07-1.15-.58-1.41-1.38-.26-.8-.29-1.79-.27-2.55.03-.79-.62-1.52-1.49-1.52H3.54zm7.17 7.17c0 1.09-.85 1.75-2.26 1.75h-2.4c-.14 0-.26-.11-.26-.25v-5.7c0-.14.12-.25.26-.25h2.38c1.17 0 1.95.61 1.95 1.55 0 .66-.52 1.25-1.18 1.35v.03c.91.09 1.52.69 1.51 1.52M8.2 5.69H6.83v1.85h1.15c.89 0 1.38-.34 1.38-.96 0-.57-.42-.89-1.16-.89M6.83 8.27v2.04h1.42c.93 0 1.42-.36 1.42-1.03s-.5-1.01-1.48-1.01H6.83z"/>
</svg>