<svg xmlns="http://www.w3.org/2000/svg" width="16" height="16" fill="currentColor"
    xml:space="preserve">
    <path d="M14.63 7.98c0 1.06.01 2.12 0 3.18 0 .44-.2.8-.57 1.02-1.8 1.05-3.61 2.1-5.41 3.14-.42.25-.86.24-1.28 0-1.8-1.04-3.59-2.08-5.38-3.13-.39-.23-.6-.59-.6-1.04-.01-2.1 0-4.21 0-6.31-.01-.46.21-.82.61-1.06C3.75 2.76 5.5 1.75 7.25.72c.5-.29.98-.31 1.48-.01 1.76 1.03 3.53 2.05 5.29 3.07.4.23.6.59.6 1.05.01 1.06.01 2.1.01 3.15zM11.8 5.77c-.81-1.5-2.75-2.58-4.85-2.08-2.02.49-3.45 2.4-3.35 4.52a4.412 4.412 0 0 0 3.9 4.18c1.92.23 3.62-.88 4.29-2.18L9.93 9.13c-.84 1.3-2.45 1.4-3.41.52-.98-.89-.98-2.37-.02-3.3.87-.83 2.55-.87 3.43.5.63-.35 1.25-.71 1.87-1.08zm1.96 2.46h.48v-.48h-.48v-.47h-.47v.48h-.47v.48h.48v.47h.46v-.48zm-2.31-.47h-.48v.48h.47c0 .05.01.08.01.11.01.42.01.42.43.36.01 0 .01-.01.04-.03v-.46h.48v-.48h-.47c0-.07-.01-.12-.01-.16 0-.34 0-.34-.34-.32-.09.01-.13.03-.12.13-.01.11-.01.23-.01.37z"/>
</svg>