<svg xmlns="http://www.w3.org/2000/svg" width="16" height="16" fill="currentColor"
    xml:space="preserve">
    <path d="M1.62 7.96V5.08c0-.31.09-.59.3-.83.1-.13.23-.23.38-.31l3.51-1.92c.59-.33 1.18-.66 1.77-.98.23-.13.47-.19.74-.18.25.01.48.09.69.21 1.14.63 2.28 1.25 3.42 1.87.62.34 1.24.67 1.85 1.02.36.2.56.51.62.91.01.06.01.12.01.18v5.81c0 .49-.23.87-.67 1.11-1.54.85-3.09 1.69-4.63 2.54-.24.13-.48.27-.73.4-.43.22-.87.21-1.29-.02-1.08-.59-2.15-1.18-3.23-1.77-.7-.38-1.4-.76-2.09-1.15-.37-.2-.58-.51-.65-.92-.01-.06-.01-.12-.01-.19.01-.97.01-1.94.01-2.9zm9.67 2.24c-.01-.01-.02-.02-.04-.02-.44-.25-.88-.5-1.32-.74-.02-.03-.03-.02-.06 0-.07.07-.14.14-.22.2-.54.41-1.14.56-1.81.44-.53-.1-.97-.36-1.3-.77-.42-.53-.57-1.12-.44-1.77.1-.52.37-.94.8-1.27.33-.27.72-.42 1.15-.46.21-.02.41-.01.62.03.36.06.69.21.98.43.09.07.17.15.26.23.46-.26.92-.52 1.39-.78-.85-1.13-2.44-1.77-4.04-1.34-.88.23-1.58.72-2.1 1.44-.53.73-.75 1.54-.69 2.42.11 1.51 1.22 2.95 2.95 3.33 1.59.36 3.09-.32 3.87-1.37zm-.49-1.94v.63h.63v.61h.64v-.55c0-.06 0-.06.06-.06h.56v.61h.64v-.62h.63v-.62h-.57c-.07 0-.07 0-.07-.06v-.55h.63v-.63h-.63v-.61h-.64v.55c0 .06 0 .06-.06.06h-.56v-.61h-.64v.62h-.63v.62h.57c.07 0 .07 0 .07.06v.55h-.63z"/>
    <path d="M12.08 7.65h.62v.56c0 .04-.01.05-.05.05h-.53c-.03 0-.05 0-.05-.04v-.55s.01 0 .01-.02z"/>
</svg>