<svg xmlns="http://www.w3.org/2000/svg" viewBox="0 0 16 16" xml:space="preserve">
    <path d="M14.97 6.85c-.04-.03-.38-.28-1.12-.28-.19 0-.38.02-.57.05-.14-.92-.94-1.39-.97-1.41l-.2-.11-.12.18c-.16.24-.29.51-.35.78-.14.53-.05 1.03.22 1.45-.33.18-.88.23-.99.23H1.92c-.23 0-.42.18-.42.41 0 .76.12 1.51.39 2.22.31.78.77 1.36 1.36 1.72.67.39 1.76.62 3.01.62.54 0 1.09-.05 1.65-.14.76-.13 1.5-.39 2.17-.76.56-.31 1.06-.71 1.48-1.18.71-.77 1.14-1.64 1.44-2.4h.13c.78 0 1.26-.3 1.52-.56.18-.16.31-.35.4-.57l.05-.16-.13-.09zM2.76 7.5h1.2c.05 0 .11-.05.11-.11V6.36c0-.05-.05-.11-.11-.11h-1.2c-.06 0-.11.05-.11.11V7.4c.01.05.05.1.11.1m1.65 0h1.2c.05 0 .11-.05.11-.11V6.36c0-.05-.05-.11-.11-.11h-1.2c-.06 0-.11.05-.11.11V7.4c.01.05.05.1.11.1m1.68 0h1.19c.07 0 .12-.05.12-.1V6.36c0-.05-.04-.11-.12-.11H6.09c-.05 0-.1.05-.1.11V7.4c0 .05.04.1.1.1m1.66 0h1.2c.05 0 .1-.05.1-.11V6.36c0-.05-.04-.11-.1-.11h-1.2c-.05 0-.1.05-.1.11V7.4c0 .05.05.1.1.1M4.41 6.03h1.2c.05 0 .11-.06.11-.12V4.88c0-.06-.05-.11-.11-.11h-1.2c-.06 0-.11.04-.11.11v1.03c.01.06.05.12.11.12m1.68 0h1.19c.07 0 .12-.06.12-.12V4.88c0-.06-.04-.11-.12-.11H6.09c-.05 0-.1.04-.1.11v1.03c0 .06.04.12.1.12m1.66 0h1.2c.05 0 .1-.06.1-.12V4.88c0-.06-.05-.11-.1-.11h-1.2c-.05 0-.1.04-.1.11v1.03c0 .06.05.12.1.12m0-1.5h1.2c.05 0 .1-.05.1-.11V3.4c0-.07-.05-.11-.1-.11h-1.2c-.05 0-.1.04-.1.11v1.03c0 .05.05.1.1.1M9.42 7.5h1.2c.06 0 .11-.05.11-.11V6.36c0-.05-.05-.11-.11-.11h-1.2c-.05 0-.1.05-.1.11V7.4c0 .05.05.1.1.1"/>
</svg>