<svg xmlns="http://www.w3.org/2000/svg" viewBox="0 0 16 16" xml:space="preserve">
    <path d="M15.26 7.44 8.67 2c-.38-.31-.99-.31-1.37 0L5.93 3.13l1.73 1.43c.4-.11.87-.04 1.19.23.32.27.41.65.27.99l1.67 1.38c.4-.12.87-.04 1.19.23.45.37.45.98 0 1.35-.45.37-1.18.37-1.63 0-.34-.28-.42-.69-.25-1.04L8.55 6.41V9.8c.11.05.21.11.31.18.45.37.45.98 0 1.35-.45.37-1.18.37-1.63 0-.45-.37-.45-.98 0-1.35.1-.09.23-.16.37-.2V6.35c-.14-.04-.27-.11-.38-.2-.34-.29-.43-.7-.25-1.05L5.26 3.69.74 7.42c-.38.31-.38.82 0 1.14L7.33 14c.38.31.99.31 1.37 0l6.55-5.42c.39-.31.39-.82.01-1.14"/>
</svg>