<svg xmlns="http://www.w3.org/2000/svg" viewBox="0 0 16 16" xml:space="preserve">
    <path fill="#010202" d="M6.751 2.371c-1.656.348-3.014 1.212-3.948 2.521-1.635 2.306-1.309 5.4.777 7.374.625.593 1.575 1.166 2.292 1.386.266.082.299.082.418.005.13-.082.136-.102.136-.69v-.603l-.478.026c-.559.026-.994-.066-1.254-.276-.092-.072-.272-.317-.396-.542-.206-.378-.358-.552-.782-.905-.141-.118-.147-.123-.049-.189.234-.164.706-.005 1.005.332.521.598.722.757 1.021.818.266.051.51.031.88-.072.049-.015.114-.123.147-.245a1.48 1.48 0 0 1 .19-.394l.13-.179-.44-.082c-.923-.179-1.493-.491-1.868-1.023-.348-.491-.462-.915-.467-1.708 0-.747.087-1.053.429-1.473.152-.184.168-.24.125-.348-.081-.184-.06-.961.027-1.197.071-.174.109-.205.255-.22.244-.026.701.123 1.162.368l.396.215.348-.077c.494-.107 1.977-.102 2.422 0l.337.082.315-.179c.418-.235.95-.419 1.216-.419.212 0 .212.005.299.266.092.302.109.849.027 1.11-.043.153-.033.199.087.348.592.736.657 1.959.157 2.961-.337.66-1.048 1.12-2.004 1.289l-.456.082.168.281.174.286.016 1.14.022 1.14.136.082c.125.077.152.077.413-.01.434-.138 1.178-.517 1.586-.808 2.422-1.708 3.204-4.771 1.863-7.318-.787-1.498-2.275-2.649-3.981-3.078-.746-.184-2.147-.225-2.853-.077z"/>
</svg>