<svg xmlns="http://www.w3.org/2000/svg" viewBox="0 0 16 16" xml:space="preserve">
    <path d="M15.84 7.67v.19c0 .02-.01.04-.01.05-.01.26-.06.51-.14.75-.15.43-.41.8-.74 1.12-.61.59-1.36.92-2.23.99-.07.01-.14.02-.21.02h-.07c-.02 0-.03-.01-.05-.01-.08-.01-.17-.01-.25-.02-.36-.04-.71-.13-1.03-.3-.59-.31-1.01-.76-1.22-1.38 0-.03-.01-.04-.01-.07-.01.02-.02.02-.02.03-.15.28-.34.52-.55.75-.75.79-1.89 1.12-2.92.93-.64-.12-1.16-.44-1.56-.93-.32-.4-.46-.86-.48-1.36-.02-.38.04-.74.18-1.09.28-.67.74-1.21 1.37-1.61.45-.28.94-.43 1.46-.49.07-.01.14-.02.21-.02h.34c.01 0 .03.01.04.01l.27.03c.59.1 1.08.38 1.47.81.15.17.27.37.37.58.03.07.02.09-.05.12-.01 0-.02.01-.03.01-.44.1-.87.2-1.29.31-.09.02-.15.01-.2-.06-.11-.13-.25-.24-.42-.31a1.36 1.36 0 0 0-.69-.11c-.2.02-.38.09-.54.18-.29.15-.53.36-.69.64-.12.22-.18.45-.2.69-.01.2.01.39.1.57.19.4.51.63.96.69.24.03.47 0 .69-.08.34-.13.58-.37.77-.66v-.01h-1.5c-.09-.02-.13-.08-.11-.17 0-.02.01-.04.02-.06.12-.26.25-.51.37-.77.05-.09.12-.13.23-.13h2.3c.04 0 .09.01.12-.01s.03-.07.05-.1c.14-.38.37-.71.64-1.02.35-.39.77-.68 1.28-.85.35-.12.72-.2 1.1-.22.23-.02.46-.01.69.02.44.06.84.23 1.2.48.59.43.91.99.97 1.69 0 .06.01.12.01.18zm-2.87-1.06c-.27.01-.6.11-.89.3-.33.21-.53.5-.64.86-.09.27-.1.54-.01.81.23.66.95.93 1.55.8.38-.09.71-.28.96-.57.3-.35.43-.75.35-1.2-.11-.6-.63-1-1.32-1zM.19 7.54c.05-.06.11-.12.15-.18.03-.04.07-.06.12-.06H3.89c.07 0 .08.01.06.08-.03.04-.04.08-.05.12-.02.05-.04.06-.1.06H.26c-.02 0-.05 0-.07-.01v-.01zM2.75 6.9H1.37c-.03 0-.04-.01-.02-.04l.16-.19c.01-.01.03-.02.05-.03.02-.01.04-.01.06-.01h2.64c.02 0 .04.01.07.01 0 .03-.01.05-.02.07-.03.04-.06.09-.1.14-.02.04-.06.06-.11.06-.45 0-.9 0-1.35-.01zM2.89 8.23h-.8c-.06 0-.07-.01-.04-.06l.09-.15c.02-.03.06-.05.1-.05h1.48c.06 0 .07.01.07.07 0 .05-.01.09-.01.14-.01.05-.03.06-.08.06h-.36c-.15 0-.3 0-.45-.01 0 .01 0 .01 0 0z"/>
</svg>