<svg xmlns="http://www.w3.org/2000/svg" viewBox="0 0 16 16" fill="currentColor"
    xml:space="preserve">
    <path d="M13.97 3.57c-.03.27-.05.53-.08.79l-.12 1.2-.15 1.48c-.04.39-.08.77-.11 1.16l-.15 1.48c-.04.38-.08.77-.11 1.15l-.15 1.51c-.05.47-.09.94-.14 1.41-.02.2-.04.39-.05.59-.01.08-.05.1-.12.11l-2.2.45c-.82.16-1.63.33-2.45.49-.09.02-.2.01-.3-.01l-4.6-.93c-.11-.02-.13-.06-.14-.15-.05-.58-.12-1.16-.17-1.75-.05-.48-.09-.97-.14-1.45l-.15-1.46c-.06-.47-.1-.95-.15-1.44l-.15-1.46-.12-1.17-.15-1.48c-.01-.17-.03-.34-.04-.52h11.94zm-9.09 6.92c0 .05 0 .08.01.1l.39 1.75c.01.05.06.11.11.13.84.31 1.68.62 2.52.92.05.02.11.02.16 0 .84-.3 1.68-.61 2.51-.91.08-.03.11-.07.12-.14l.06-.48c.06-.54.13-1.08.19-1.62.07-.61.15-1.23.23-1.84.02-.12.02-.25.04-.38H6.29c-.04 0-.09.01-.13 0-.03-.01-.07-.03-.08-.05-.09-.31-.17-.62-.26-.95h5.69c.09-.49.18-.97.27-1.45H4.23l.54 3.91h4.87c-.02.09-.02.15-.03.21-.08.56-.16 1.11-.23 1.67-.01.08-.04.12-.12.15l-1.17.42c-.05.02-.13.02-.19 0-.39-.14-.79-.28-1.18-.43a.234.234 0 0 1-.12-.12c-.08-.25-.15-.49-.21-.74-.03-.11-.07-.15-.2-.15-.39.01-.78 0-1.16 0h-.15zm4.58-8.13c-.16-.24-.3-.46-.45-.68h-.02v.59c0 .33 0 .33-.36.33-.09 0-.18-.01-.26 0-.13.02-.17-.01-.17-.13.01-.58 0-1.15 0-1.73 0-.04 0-.07.01-.12h.74c.03 0 .07.05.09.08.14.19.27.38.42.59.12-.17.24-.31.33-.47.09-.17.22-.24.43-.21.13.02.26.01.4 0 .08 0 .11.03.11.1V2.5c0 .08-.03.11-.12.11-.19 0-.37-.01-.56 0-.1 0-.12-.03-.12-.11 0-.26 0-.53-.03-.8-.13.21-.28.43-.44.66zM4.52 1.25V.62h.73c.02 0 .05.05.05.08v1.82c0 .03-.05.09-.08.09-.22.01-.45 0-.7 0 0-.17-.01-.33 0-.5.01-.12-.04-.16-.17-.15-.11.01-.22.01-.33 0-.1-.01-.14.02-.13.11.01.14 0 .28 0 .42 0 .08-.02.12-.12.11-.18-.01-.37 0-.56 0-.09 0-.12-.03-.12-.1V.71c0-.08.04-.1.12-.1h.56c.1 0 .12.04.12.12v.43c0 .06.01.09.09.09.18-.01.35 0 .54 0zm1.3-.63h2.03v.59c0 .02-.06.06-.1.06-.14.01-.27.01-.41 0-.11 0-.14.03-.14.13v1.06c0 .12-.04.16-.17.15-.14-.01-.28-.01-.42 0-.11 0-.15-.03-.15-.13.01-.35 0-.7 0-1.06 0-.12-.04-.16-.16-.15-.13.01-.26.01-.38 0-.04 0-.09-.05-.09-.08-.01-.18-.01-.37-.01-.57zm6.04 1.32h.9c.1 0 .13.03.13.12-.01.15 0 .3 0 .45 0 .08-.03.11-.12.11h-1.59c-.09 0-.12-.03-.12-.1V.73c0-.07.03-.1.11-.1h.56c.1 0 .13.03.13.12v1.19z"/>
</svg>