<svg xmlns="http://www.w3.org/2000/svg" width="16" height="16" fill="currentColor" xml:space="preserve">
    <path d="M14.89 15.07H1.13c-.01 0-.02-.01-.04-.01-.2-.06-.32-.17-.37-.36l-.03-.06V1.37c.01-.03.03-.04.03-.06.05-.18.17-.3.36-.35.02-.01.05-.02.07-.03h13.72c.02.01.03.01.05.02.2.05.33.16.37.36 0 .01.01.01.01.01v13.37c0 .01-.01.01-.01.02-.05.18-.17.29-.35.34-.01.01-.03.01-.05.02zm-1.1-6.65c-.01-.03-.02-.04-.03-.06-.05-.07-.09-.14-.14-.2-.25-.33-.57-.57-.98-.7-.2-.06-.41-.09-.62-.1-.37-.02-.73.02-1.08.15-.46.18-.79.48-.99.92-.16.35-.17.72-.1 1.1.08.43.3.78.65 1.06.2.16.41.29.64.39.26.12.52.22.78.34.16.07.32.15.47.22.09.05.18.11.25.19.21.21.25.63-.06.87-.08.06-.16.1-.25.13-.18.06-.36.07-.55.07a1.33 1.33 0 0 1-.83-.31c-.15-.12-.27-.27-.38-.43-.01-.02-.03-.04-.04-.06-.13.06-1.08.6-1.12.64.01.02.02.03.03.05.22.39.52.7.91.92.38.22.79.33 1.22.37.34.03.68.02 1.02-.05.29-.06.57-.16.82-.32.45-.3.7-.71.76-1.24.02-.17.02-.34 0-.5-.03-.26-.1-.5-.24-.72-.15-.24-.35-.42-.58-.58-.22-.16-.47-.28-.72-.39-.27-.12-.55-.23-.83-.35-.13-.06-.26-.12-.38-.21a.58.58 0 0 1-.26-.56c.02-.19.12-.33.29-.43a.65.65 0 0 1 .27-.08c.26-.02.5.03.69.21.09.08.17.18.23.29.01.02.03.04.04.07.39-.26.75-.48 1.11-.7zm-9.25 4.33c.02.04.04.08.06.11.23.42.56.73 1.01.92a2.859 2.859 0 0 0 1.78.08c.52-.15.9-.47 1.11-.96.11-.26.17-.54.17-.82V7.43c-.1-.01-1.33-.01-1.38.01v4.62c-.01.12-.02.24-.07.36a.51.51 0 0 1-.34.33c-.16.05-.32.06-.49.03a.78.78 0 0 1-.46-.29c-.08-.1-.14-.21-.21-.32-.01-.02-.03-.04-.04-.06-.39.2-.76.42-1.14.64z"/>
</svg>