<?xml version="1.0" encoding="utf-8"?>
<!-- Generator: Adobe Illustrator 27.9.0, SVG Export Plug-In . SVG Version: 6.00 Build 0)  -->
<svg version="1.1" id="Capa_1" xmlns="http://www.w3.org/2000/svg" xmlns:xlink="http://www.w3.org/1999/xlink" x="0px" y="0px"
	 viewBox="0 0 16 16" enable-background="new 0 0 16 16" xml:space="preserve">
<path d="M5.29,11.67c0,0-0.77,0.33,0.55,0.44c1.61,0.13,2.43,0.11,4.19-0.13c0,0,0.47,0.21,1.12,0.4
	C7.19,13.61,2.18,12.31,5.29,11.67 M4.81,10.06c0,0-0.87,0.47,0.46,0.57c1.71,0.13,3.07,0.14,5.41-0.19c0,0,0.32,0.24,0.83,0.37
	C6.72,11.83,1.38,10.89,4.81,10.06"/>
<path d="M8.89,7.32c0.98,0.82-0.26,1.55-0.26,1.55s2.48-0.93,1.34-2.1C8.92,5.69,8.1,5.15,12.52,3.29
	C12.52,3.29,5.58,4.55,8.89,7.32"/>
<path d="M14.14,12.87c0,0,0.57,0.34-0.63,0.61c-2.29,0.5-9.53,0.66-11.54,0.02c-0.72-0.23,0.63-0.55,1.06-0.61
	c0.44-0.07,0.7-0.06,0.7-0.06c-0.8-0.41-5.19,0.81-2.23,1.16C9.58,14.94,16.24,13.55,14.14,12.87 M5.67,8.39c0,0-3.68,0.64-1.3,0.87
	c1,0.1,3.01,0.08,4.87-0.04c1.52-0.09,3.05-0.29,3.05-0.29s-0.54,0.17-0.93,0.36C7.62,10,0.4,9.67,2.48,8.94
	C4.24,8.32,5.67,8.39,5.67,8.39 M12.27,11.07c3.8-1.44,2.04-2.82,0.82-2.63c-0.3,0.05-0.43,0.08-0.43,0.08s0.11-0.13,0.32-0.18
	c2.43-0.62,4.29,1.83-0.78,2.8C12.19,11.15,12.25,11.11,12.27,11.07"/>
<path d="M9.98,0.28c0,0,2.1,1.53-2,3.89c-3.29,1.89-0.75,2.97,0,4.2C6.06,7.1,4.65,5.99,5.6,4.96C6.99,3.45,10.83,2.71,9.98,0.28"/>
<path d="M6.04,14.97c3.65,0.17,9.25-0.09,9.38-1.35c0,0-0.25,0.48-3.01,0.85c-3.11,0.43-6.95,0.38-9.23,0.1
	C3.18,14.57,3.64,14.85,6.04,14.97"/>
</svg>
