<svg xmlns="http://www.w3.org/2000/svg" viewBox="0 0 16 16" xml:space="preserve">
    <path d="m6.2 9.71.02.01.04.02.15.06.03.01c.06.02.12.05.17.07l.04.02c.05.02.11.04.16.06l.02.01c.07.01.13.03.19.04l.04.01c.06.02.12.04.19.05 4.11.69 5.31-2.27 5.31-2.27-1 1.2-2.78 1.52-4.47 1.16-.06 0-.12-.02-.19-.04l-.04-.01-.18-.06h-.03c-.05-.02-.11-.04-.16-.06l-.04-.01c-.06-.03-.12-.05-.18-.07l-.03-.01-.15-.06-.04-.03c-.04-.01-.07-.03-.11-.05l-.08-.03c-.04-.03-.09-.05-.13-.07l-.05-.03c-.06-.03-.11-.06-.17-.1l-.05-.02c-.04-.03-.08-.05-.12-.08l-.05-.03a2.78 2.78 0 0 1-.11-.08l-.06-.03c-.03-.03-.07-.05-.1-.08l-.05-.03-.13-.1-.02-.02c-.04-.04-.09-.07-.14-.11l-.04-.04c-.03-.03-.07-.06-.1-.09l-.04-.03-.12-.12-.01-.01c-.04-.04-.08-.09-.12-.13l-.03-.04c-.03-.03-.06-.07-.09-.1l-.04-.04a.642.642 0 0 1-.1-.13c-.94-1.17-1.27-2.78-.52-4.11l-.67.77c-.85 1.12-.74 2.58-.09 3.77l.05.08.03.05.01.04.03.06c.02.03.04.07.06.1l.04.05.07.1.03.04c.03.05.07.09.1.14l.02.02.09.12.05.05c.03.03.06.07.09.1l.03.04c.04.04.08.09.12.13l.12.12.04.04c.03.03.07.06.1.09l.04.04c.04.04.09.08.14.11l.02.02c.04.03.08.06.12.1l.05.04.1.07.06.04c.04.03.08.05.12.08l.06.01.01.01c.04.02.07.05.11.07l.05.03c.06.03.12.07.18.1l.05.02c.04.02.09.05.13.07l.07.03.1.05zm.41-3.8c.09.12.2.27.32.36.04.04.09.09.14.13l.03.04c.05.04.09.08.14.12h.01c.05.05.11.09.16.13l.04.03c.06.04.11.08.17.12h.01l.08.05.04.02c.04.02.08.05.13.07l.02.01c.03.02.07.04.1.05l.04.02.08.04h.01c.06.03.11.05.17.08l.04.01c.04.02.09.03.13.05l.06.02c.04.01.08.03.12.04l.06.02c.06.02.12.04.18.05 3.17.48 3.91-1.76 3.91-1.76-.66.87-1.94 1.29-3.31.96-.06-.02-.12-.03-.18-.05l-.05-.02a.495.495 0 0 1-.13-.04l-.06-.02a.694.694 0 0 1-.13-.05l-.04-.01c-.05-.02-.11-.05-.16-.07l-.09-.04-.05-.02c-.03-.02-.07-.04-.1-.06l-.03-.01c-.04-.02-.08-.05-.12-.07l-.04-.02-.08-.05c-.06-.04-.12-.08-.17-.12l-.04-.03c-.6-.43-1.07-1.02-1.3-1.7-.24-.69-.19-1.47.22-2.1l-.5.65c-.61.81-.58 1.9-.1 2.76.08.14.17.28.27.41m3.35-1 .08.03.03.01.11.03c1.75.31 2.23-.83 2.35-.99-.42.55-1.12.68-1.98.49l-.21-.06c-.08-.03-.17-.06-.25-.09-.15-.07-.3-.15-.43-.24-.75-.55-1.23-1.57-.73-2.4l-.27.34c-.36.49-.4 1.1-.15 1.64.27.57.81 1.02 1.45 1.24m-1.69 6.58h-.48c-.03 0-.05.02-.06.04l-.17.72-.17.72c-.01.02-.03.04-.06.04H7c-.33 0-.29-.21-.23-.5v-.01l.01-.04v-.01l.02-.07.02-.08.02-.08.08-.34.08-.34c.01-.02-.01-.04-.03-.04h-.51c-.03 0-.05.02-.06.04l-.1.46-.1.46-.01.04c-.12.51-.09.99.57 1H7.8c.03 0 .05-.02.06-.04l.22-.96.22-.96c.01-.03-.01-.05-.03-.05m-5.1 0h-.52c-.03 0-.05.02-.06.04l-.05.2-.05.2c-.01.02.01.04.04.04h.53c.03 0 .05-.02.06-.04l.05-.2.05-.2c0-.02-.02-.04-.05-.04m-.15.62H2.5c-.03 0-.05.02-.06.04l-.07.3-.07.3-.02.09-.08.31-.07.31c-.01.02-.02.06-.03.08 0 0-.1.27-.26.27h-.16c-.03 0-.05.02-.06.04l-.05.21-.05.21c-.01.02.01.04.04.04h.43c.41 0 .63-.21.77-.81l.16-.69.15-.65c0-.03-.02-.05-.05-.05m9.69-.16-.02-.08-.02-.08-.01-.04c-.04-.15-.17-.24-.44-.24h-1.25c-.03 0-.05.02-.06.04l-.02.08-.02.1-.01.03-.2.85-.19.81c-.01.02-.01.05 0 .06 0 .01.05.02.08.02h.4c.03 0 .06 0 .07-.01.01-.01.04-.05.04-.08l.07-.32.07-.32.01-.04.09-.37.08-.32c.01-.02.03-.04.06-.04h1.25c.01-.01.03-.03.02-.05m1.61-.75h-.5a.09.09 0 0 0-.08.04l-.88 1.19c-.01.02-.03.02-.04-.01l-.07-.26a.068.068 0 0 0-.06-.04h-.57c-.03 0-.04.02-.03.04l.25.82c.01.02.01.06 0 .09l-.11.4c-.01.02.01.04.04.04h.56c.03 0 .05-.02.06-.04l.11-.4a.3.3 0 0 1 .04-.08l1.43-1.75c.02-.02.01-.04-.02-.03l-.13-.01zm-4.51 1.03c0 .03-.03.04-.06.05h-.72c-.02 0-.04-.02-.03-.03v-.01c.07-.17.21-.28.47-.28.3-.02.36.12.34.27m-.21-.77c-.92 0-1.14.51-1.27 1.03-.12.53-.11 1.02.84 1.02h.88c.03 0 .05-.02.06-.04l.04-.17.01-.03.05-.21c.01-.02-.01-.04-.03-.04H9.3c-.34 0-.44-.08-.41-.33h1.37c.02 0 .04-.01.05-.03v-.01c.22-.71.16-1.19-.71-1.19m-4.37.76-.01.04-.1.34-.1.34c-.02.03-.04.04-.07.04H4.4c-.42 0-.52-.3-.42-.74.1-.45.3-.73.71-.76.56-.04.68.33.54.74m.38.74s.26-.58.32-.91c.08-.45-.16-1.09-1.1-1.09-.93 0-1.34.62-1.49 1.29-.15.68.05 1.27.98 1.26H5.73c.03 0 .05-.02.06-.04l.12-.42c0-.03-.02-.05-.05-.05h-.22c-.03 0-.04-.02-.03-.04zm4.62-.39c0 .02-.01.03-.03.03s-.03-.01-.03-.03c0-.02.01-.03.03-.03.02 0 .03.02.03.03"/>
</svg>