<svg xmlns="http://www.w3.org/2000/svg" viewBox="0 0 16 16" xml:space="preserve">
    <path fill-rule="evenodd" clip-rule="evenodd" fill="#E7392D" d="M13.6 5.01c0 .01.01.03.01.04V7.4c0 .06-.03.12-.09.15l-2.08 1.13v2.24c0 .06-.03.12-.09.15L7 13.43c-.01.01-.02.01-.03.01h-.01c-.03.01-.06.01-.09 0 0 0-.01 0-.01-.01-.01 0-.02-.01-.03-.01l-4.34-2.36a.165.165 0 0 1-.09-.15V3.9c0-.02 0-.03.01-.04 0 0 0-.01.01-.01 0-.01.01-.02.01-.03 0-.01.01-.01.01-.02l.02-.02c.01 0 .01-.01.02-.01.01-.01.01-.01.02-.01l2.17-1.18c.06-.03.12-.03.18 0l2.17 1.18c.01 0 .01.01.02.01s.01.01.02.01c-.01 0-.01.01 0 .02 0 .01.01.01.01.02.01.01.01.02.01.03 0 0 0 .01.01.01 0 .01.01.03.01.04v4.39l1.8-.99V5.06c0-.01 0-.03.01-.04 0-.01 0-.01.01-.01 0-.01.01-.02.01-.03 0-.01.01-.01.01-.02l.02-.02c.01 0 .01-.01.02-.01.01-.01.01-.01.02-.01l2.17-1.18c.06-.03.12-.03.18 0l2.17 1.18c.01 0 .01.01.02.01s.01.01.02.01l.02.02c0 .01.01.01.01.02.01.01.01.02.01.03 0-.01 0 0 0 0zm-.36 2.29V5.35l-.76.41-1.05.57v1.95l1.81-.98zm-2.17 3.52V8.87l-1.03.56-2.94 1.59v1.97l3.97-2.17zM2.76 4.19v6.63l3.98 2.17v-1.97L4.66 9.91c-.01 0-.01-.01-.02-.01s-.01-.01-.02-.01c-.01-.01-.01-.02-.02-.03 0-.01-.01-.01-.01-.02s-.01-.01-.01-.02-.01-.01-.01-.02V5.18L3.52 4.6l-.76-.41zm1.99-1.28-1.81.99 1.81.98 1.8-.98-1.8-.99zm.94 6.14 1.05-.57V4.19l-.77.42-1.04.57v4.29l.76-.42zm5.57-4.98-1.81.99 1.81.98 1.81-.98c-.01 0-1.81-.99-1.81-.99zm-.19 2.27-1.05-.57-.75-.42V7.3l1.05.57.76.41c-.01 0-.01-1.94-.01-1.94zm-4.16 4.39L9.57 9.3l1.33-.72-1.81-.98-2.08 1.13-1.9 1.03 1.8.97z"/>
</svg>