<svg xmlns="http://www.w3.org/2000/svg" viewBox="0 0 16 16" xml:space="preserve">
    <path fill="#1CA851" d="M9.65 5.29c-.42-1.56-1.3-1.98-1.52-2.27-.09-.13-.17-.26-.24-.4-.02.14-.04.23-.18.33-.28.21-1.48 1.03-1.58 2.81-.09 1.65 1.45 2.67 1.65 2.78.16.06.35 0 .44-.06.74-.43 1.76-1.57 1.43-3.19"/>
    <path fill="#B8C4C2" d="M7.95 7.66c-.04.41-.07.64-.17.88 0 0 .06.39.11.8h.16c.04-.29.1-.58.18-.86-.21-.09-.27-.46-.28-.82z"/>
    <path fill="#12924F" d="M8.23 8.48c-.21-.09-.27-.47-.28-.82.05-.59.07-1.18.04-1.77-.01-.31.01-2.86-.09-3.23.07.12.14.24.23.36.22.29 1.1.71 1.52 2.27.33 1.62-.68 2.75-1.42 3.19z"/>
    <path fill="#21323C" d="M14.81 12.46c-.14 0-.25-.13-.25-.29 0-.16.11-.29.25-.29s.25.13.25.29c0 .16-.11.29-.24.29h-.01m0-.55c-.13 0-.23.12-.23.26 0 .15.1.26.23.27.13 0 .23-.12.23-.26 0-.15-.1-.27-.23-.27m.06.45-.07-.16h-.05v.16h-.04v-.37h.09c.07 0 .1.03.1.1 0 .05-.02.09-.06.1l.07.17h-.04zm-.12-.2h.06c.04 0 .06-.02.06-.06 0-.05-.02-.06-.07-.06h-.05v.12zM11.05 12.2c.07.06.21.09.33.09.16 0 .31-.03.46-.19.15-.16.26-.4.26-.79 0-.37-.12-.67-.38-.85-.14-.1-.33-.14-.54-.14-.06 0-.12 0-.16.02-.01.01-.02.03-.03.05-.01.07-.01.57-.01.87 0 .31 0 .73.01.78-.01.05.01.13.06.16m-.65-2.05c.06 0 .27.01.36.01.18 0 .31-.01.65-.01.29 0 .53.09.7.26.21.21.32.49.32.84 0 .5-.2.78-.4.95-.2.17-.46.27-.82.27-.2 0-.53-.01-.81-.01h-.01c-.01-.03.02-.14.05-.15.08-.01.1-.01.13-.03.06-.03.07-.06.08-.18.01-.23.01-.5.01-.81v-.79c-.01-.11-.05-.14-.14-.17-.06-.01-.12-.03-.18-.03-.01-.03.04-.13.06-.15M13.24 10.34c-.01 0-.03.04-.03.06 0 .13-.01.48-.01.72 0 .01.01.02.02.02.04 0 .15.01.23.01.12 0 .2-.02.23-.04.1-.06.15-.19.15-.33 0-.32-.2-.44-.49-.44a.17.17 0 0 0-.1 0m.74 1.47c0-.32-.21-.51-.59-.51h-.17c-.01 0-.02.01-.02.02 0 .23 0 .6.01.75.01.06.05.15.09.18.05.03.17.04.25.04.23 0 .43-.14.43-.48m-1.33-1.65c.03 0 .12.01.34.01.21 0 .38-.01.58-.01.25 0 .6.1.6.53 0 .21-.13.38-.3.46-.01 0-.01.01 0 .01.24.07.45.24.45.56 0 .32-.17.52-.42.64-.15.08-.34.1-.53.1-.15 0-.54-.02-.76-.01-.02-.01.02-.13.04-.15.05 0 .1-.01.15-.03.08-.02.09-.05.1-.18.01-.11.01-.52.01-.81v-.8c0-.1-.04-.14-.1-.15-.05-.01-.13-.02-.2-.03-.03-.02.02-.13.04-.14M.97 12.46c-.01-.02-.01-.05-.01-.07 0-.02 0-.03.01-.05.04-.01.08-.02.13-.03.06-.02.08-.05.08-.14.01-.2.01-.57.01-.83v-.01c0-.03 0-.07-.03-.09a.556.556 0 0 0-.17-.09c-.03-.01-.04-.03-.04-.04 0-.02.02-.04.05-.05.09-.01.34-.08.44-.13.01.01.01.03.01.05v.04c0 .04-.01.08-.01.12 0 .02.01.03.03.02.01 0 .01 0 .01-.01.18-.17.35-.22.44-.22.14 0 .25.08.33.23 0 .01.01.01.02.01s.01 0 .02-.01c.17-.15.34-.24.45-.24.27 0 .43.23.43.61V12.2c0 .02.02.07.05.08.04.02.1.03.17.05.01.02-.01.11-.02.12H3.3c-.06 0-.13-.01-.22-.01-.18 0-.27 0-.36.01-.01-.03-.01-.11 0-.12l.11-.03c.06-.02.07-.05.08-.14 0-.06.01-.6-.01-.72-.02-.13-.1-.29-.29-.29a.45.45 0 0 0-.29.13c-.01.01-.01.02-.01.03.01.07.01.15.01.27v.61c0 .07.04.09.07.1.02 0 .03.01.04.01.03.01.05.01.09.02.01.03.01.06 0 .09 0 .01-.01.02-.01.03-.1 0-.2-.01-.35-.01h-.31c-.01-.02-.01-.04-.01-.06 0-.02 0-.04.01-.06l.04-.01c.03-.01.06-.01.09-.02.05-.02.07-.05.07-.12.01-.16.02-.64 0-.75-.05-.16-.14-.26-.3-.26-.09 0-.2.05-.29.13-.02.02-.03.05-.03.08V12.22c0 .04.02.09.08.1.01 0 .04.01.07.01.02 0 .03.01.05.01.01.04 0 .08-.01.12h-.1c-.06 0-.14-.01-.22-.01-.1 0-.17 0-.23.01h-.1M4.24 11.08c-.06 0-.11.02-.16.05-.11.08-.17.24-.17.47 0 .43.19.73.46.73.07 0 .14-.03.2-.08.08-.08.13-.24.13-.46 0-.42-.19-.71-.46-.71m.05 1.42c-.49 0-.66-.41-.66-.79 0-.27.1-.48.29-.62.13-.09.28-.15.44-.15.37 0 .63.31.63.75 0 .3-.1.53-.3.68-.1.05-.27.13-.4.13M9.22 11.08c-.06 0-.11.02-.16.05-.11.08-.17.24-.17.47 0 .43.19.73.46.73.07 0 .14-.03.2-.08.08-.08.13-.24.13-.46 0-.42-.19-.71-.46-.71m.05 1.42c-.49 0-.66-.41-.66-.79 0-.27.1-.48.29-.62.13-.09.28-.15.44-.15.37 0 .63.31.63.75 0 .3-.1.54-.3.68-.1.05-.26.13-.4.13M7.57 11.07c-.15 0-.25.14-.25.35 0 .21.08.46.32.46.04 0 .11-.02.15-.07a.51.51 0 0 0 .09-.3c.01-.28-.11-.44-.31-.44m-.02 1.46c-.04 0-.08.01-.12.03-.12.09-.17.17-.17.28 0 .09.03.17.1.24.08.08.2.12.35.12.29 0 .42-.18.42-.36 0-.12-.05-.21-.17-.25-.09-.04-.23-.06-.41-.06m.02.85c-.18 0-.3-.04-.41-.14a.437.437 0 0 1-.15-.33c0-.06.02-.12.06-.17.03-.04.1-.11.27-.24.01 0 .01-.01.01-.01 0-.01 0-.01-.01-.02a.324.324 0 0 1-.19-.21v-.01c0-.02-.01-.04.02-.06.02-.02.05-.04.08-.06.05-.03.09-.06.13-.1.01-.01.01-.03 0-.03-.2-.08-.3-.25-.3-.51 0-.16.07-.32.18-.41.08-.07.28-.16.41-.16h.01c.13 0 .21.04.31.08.06.02.12.04.19.03.11 0 .16-.04.2-.09.01.02.01.04.01.07 0 .05-.01.11-.04.15-.02.04-.08.06-.13.06H8.2c-.03 0-.05-.01-.08-.01l-.01.01v.03c.01.05.01.09.02.14 0 .27-.09.39-.19.48-.1.08-.21.14-.34.15h-.08c-.02.01-.08.04-.08.1 0 .05.03.11.15.12l.08.01c.16.01.37.03.46.07.13.05.22.2.21.35 0 .24-.15.47-.4.61-.1.06-.24.1-.37.1M6.82 12.33a.467.467 0 0 1-.19-.06.076.076 0 0 1-.02-.05c-.01-.11-.01-.45-.01-.66a.93.93 0 0 0-.09-.44c-.08-.13-.19-.2-.33-.2-.13 0-.3.1-.44.24 0 0-.02.03-.02-.01s.01-.11.01-.16c0-.03-.01-.05-.02-.07-.09.05-.35.12-.44.13-.07.02-.09.09-.01.12.06.02.12.05.17.08.03.03.03.06.03.09 0 .25 0 .63-.01.83 0 .08-.02.11-.08.13l-.12.03c-.02.02-.02.13 0 .15.03 0 .2-.01.34-.01.19 0 .29.01.34.01.02-.03.03-.13.01-.15-.05 0-.09-.01-.13-.02-.05-.01-.07-.04-.07-.11-.01-.17-.01-.54-.01-.79 0-.07.02-.1.04-.12.07-.07.17-.11.27-.11.09 0 .15.03.2.08.05.05.09.13.09.21.01.14.01.42.01.66 0 .13-.01.17-.05.18a.63.63 0 0 1-.13.03c-.02.02-.01.13 0 .15.08 0 .18-.01.33-.01.18 0 .29.01.34.01 0-.04.01-.13-.01-.16"/>
</svg>