<svg xmlns="http://www.w3.org/2000/svg" viewBox="0 0 16 16" fill="currentColor" xml:space="preserve">
    xml:space="preserve">
    <path d="M.36 14.86c.02-.07.06-.14.06-.21v-1.64c0-.33.03-.37.32-.45.27-.07.51.01.61.24.14.31.27.62.4.93.12.27.24.55.38.87.14-.3.26-.58.38-.86.13-.3.26-.61.4-.91.14-.31.61-.4.86-.17.06.05.1.15.1.23.01.65 0 1.3 0 1.95 0 .02-.01.04-.01.07h-.45v-1.98c-.01 0-.03-.01-.04-.01-.05.09-.09.19-.13.28-.21.47-.42.94-.62 1.41-.09.21-.22.34-.46.34-.24 0-.39-.11-.49-.33l-.72-1.65c-.01-.02-.02-.03-.06-.09v2.03H.37c-.01-.01-.01-.03-.01-.05zm3.97.78c.01-.1.02-.2.03-.32h1.48c.09 0 .17-.01.25-.04.11-.03.2-.25.14-.34-.01-.03-.07-.04-.11-.04h-.98c-.23 0-.46-.03-.65-.18-.07-.06-.16-.16-.16-.25-.02-.38-.01-.76-.01-1.16h.47v.96c0 .29.07.36.35.36.31 0 .63-.01.94 0 .12 0 .15-.04.15-.15-.01-.33 0-.66 0-.98v-.19h.47v1.71c0 .31-.1.44-.39.55-.04.01-.07.05-.1.08-.62-.01-1.25-.01-1.88-.01zm10.87-5.06c-.63.12-1.26.25-1.94.38.1.13.17.24.25.31.14.12.29.23.45.32.5.28.92.65 1.27 1.1.13.16.27.31.41.47-.01.01-.03.02-.04.04-.21-.16-.4-.34-.62-.47-.38-.23-.79-.42-1.17-.64-.39-.23-.77-.49-1.03-.89-.07-.11-.13-.23-.18-.35-.05-.11.04-.14.11-.17a4.17 4.17 0 0 1 1.81-.31c.04 0 .08 0 .12-.01.01-.01.02-.03.02-.04-.09-.09-.17-.19-.27-.26-.38-.27-.76-.55-1.16-.78-.32-.18-.68-.33-1.03-.42-.4-.11-.67-.33-.84-.7-.36-.84-.73-1.68-1.11-2.51a6.82 6.82 0 0 0-.96-1.55C8.58 3.21 7.73 2.5 6.71 2c-.39-.2-.79-.32-1.22-.32-.3 0-.56-.07-.81-.29-.36-.31-.8-.5-1.27-.6-.28-.06-.47.15-.37.42.08.19.18.37.31.53.43.53.77 1.1.95 1.77.05.19.11.38.18.56.14.37.31.72.61 1 .22.2.14.45.06.69-.09.3-.21.59-.26.89-.12.8-.06 1.59.35 2.32.05.1.15.17.23.24.09.07.16.06.17-.08.02-.22.06-.43.09-.65.08-.57.16-.75.57-1.2.45 1.19 1.04 2.29 1.87 3.25-.76-.63-1.52-1.24-1.82-2.24-.02.01-.03.01-.05.02-.03.11-.06.23-.08.35-.04.17-.05.35-.08.53-.04.22-.12.4-.35.48-.22.08-.4 0-.56-.15-.38-.37-.56-.84-.66-1.35-.16-.75-.07-1.48.13-2.21.04-.15.1-.3.13-.45.01-.06 0-.15-.04-.19-.42-.45-.61-1.01-.81-1.57-.08-.23-.14-.46-.22-.69-.13-.39-.4-.68-.64-1-.2-.27-.41-.52-.47-.87-.07-.42.24-.82.67-.83.41-.02.78.14 1.14.33.22.12.43.27.63.42.13.1.27.13.42.13.7.02 1.34.23 1.92.61.74.49 1.45 1.02 2.03 1.7.65.75 1.15 1.58 1.51 2.51.26.68.61 1.33.92 1.99.08.16.19.27.37.34.95.33 1.74.93 2.48 1.59.18.16.31.36.46.54.01.02 0 .04 0 .06zm-3.31 4.25.43.4c-.3.06-.56.03-.75-.21-.09-.11-.19-.13-.33-.12-.29.02-.58.03-.86 0-.51-.05-.67-.26-.66-.69.01-.33 0-.67 0-1 0-.31.11-.46.4-.55.11-.03.23-.06.35-.06.33-.01.65-.01.98 0 .14 0 .28.03.41.08.24.08.34.25.34.5v.87c-.01.3.05.61-.31.78zm-1.12-.52c.01-.02.03-.04.04-.05.22-.02.45-.06.61.16.03.03.06.06.1.09.1.1.18.06.22-.06.02-.05.02-.12.02-.18v-1c0-.25-.07-.35-.31-.37-.31-.02-.62-.02-.93 0-.2.01-.3.13-.3.32v1.07c0 .12.03.24.16.3.22.09.45.05.68.05.01-.02.02-.04.03-.05-.11-.11-.22-.19-.32-.28zm-2.29-1.72h.7c.09 0 .19-.03.19.13 0 .14-.06.16-.18.16H8c-.36 0-.48.19-.38.53.04.15.16.19.29.19.21.01.42 0 .63.01.08 0 .16 0 .24.01.51.09.69.39.53.89-.03.08-.1.18-.18.22-.18.08-.36.15-.55.17-.43.02-.86.01-1.29.01-.11 0-.17-.02-.17-.15s.06-.15.17-.15c.38.01.76.01 1.14.01.06 0 .13 0 .19-.01.17-.02.25-.12.25-.32 0-.28-.04-.37-.24-.39-.24-.02-.49-.01-.73-.04-.19-.02-.38-.08-.56-.14a.372.372 0 0 1-.17-.18c-.21-.42.07-.9.53-.93.25-.02.51 0 .76 0 .02-.01.02-.01.02-.02zm4.54.94v.72c0 .27.08.35.35.35h1.22c.15 0 .21.06.17.2-.01.04-.07.1-.1.1-.54-.01-1.07-.01-1.61-.06-.36-.03-.5-.26-.5-.62v-1.46c0-.13.03-.18.16-.18.38.01.3-.02.31.3v.65z"/>
    <path d="M5.29 2.61c.27-.07.44 0 .57.23.1.18.06.35-.1.5-.15-.23-.31-.48-.47-.73z"/>
</svg>