<svg xmlns="http://www.w3.org/2000/svg" viewBox="0 0 16 16" xml:space="preserve">
    <path fill="#679F63" d="M7.91 12.23c-.05 0-.1-.01-.15-.03l-.46-.25c-.07-.03-.04-.05-.01-.05.09-.03.11-.04.21-.09.01-.01.02 0 .03 0l.36.19h.04l1.38-.72c.01-.01.02-.02.02-.03V9.81c0-.01-.01-.03-.02-.03l-1.38-.73a.03.03 0 0 0-.04 0l-1.38.72c-.02.01-.02.02-.02.04v1.44c0 .01.01.03.02.03l.38.2c.21.09.33-.02.33-.13V9.93c0-.02.02-.04.04-.04h.18c.02 0 .04.02.04.04v1.42c0 .25-.15.39-.41.39-.08 0-.14 0-.32-.08l-.36-.19c-.09-.05-.15-.13-.15-.23V9.81c0-.09.06-.18.15-.23l1.39-.72c.09-.04.2-.04.29 0l1.38.72c.09.05.15.13.15.23v1.44c0 .09-.06.18-.15.23l-1.38.72c-.06.01-.11.03-.16.03"/>
    <path fill="#679F63" d="M8.34 11.24c-.61 0-.73-.25-.73-.46 0-.02.02-.04.04-.04h.18c.02 0 .04.01.04.03.03.16.11.25.47.25.29 0 .42-.06.42-.2 0-.08-.04-.14-.49-.18-.38-.03-.61-.11-.61-.38 0-.25.24-.4.63-.4.44 0 .66.14.69.44 0 .01 0 .02-.01.03-.01.01-.02.01-.03.01h-.19c-.02 0-.04-.01-.04-.03-.04-.17-.15-.23-.43-.23-.32 0-.36.1-.36.17 0 .09.04.12.47.17.43.05.63.12.63.39.01.27-.24.43-.68.43m1.68-1.53h.05c.04 0 .05-.02.05-.04 0-.04-.03-.04-.04-.04h-.05l-.01.08zm-.05-.12h.1c.04 0 .1 0 .1.07 0 .05-.04.06-.06.07.04 0 .04.03.05.06 0 .02.01.06.02.07h-.06c0-.01-.01-.08-.01-.08 0-.02-.01-.02-.03-.02h-.05v.11h-.06v-.28zm-.13.14c0 .11.1.2.22.2s.22-.09.22-.2c0-.11-.1-.2-.22-.2-.11 0-.22.08-.22.2m.49 0c0 .13-.12.24-.27.24-.15 0-.27-.11-.27-.24 0-.14.12-.24.27-.24.15 0 .27.1.27.24"/>
    <path fill-rule="evenodd" clip-rule="evenodd" fill="#333" d="M3.62 6.6a.15.15 0 0 0-.09-.14L2.07 5.7c-.03-.01-.06-.02-.08-.02h-.02c-.03 0-.06.01-.08.02l-1.47.76c-.05.03-.09.08-.09.14v2.05c0 .03.02.05.04.07.03.01.06.01.09 0l.87-.45c.07-.03.1-.09.1-.14v-.96c0-.06.03-.11.09-.14l.37-.19c.03-.01.06-.02.09-.02s.06.01.09.02l.37.19c.05.03.09.08.09.14v.96c0 .06.03.11.09.14l.87.45c.03.01.06.01.09 0 .02-.02.04-.05.04-.07V6.6zm6.93 1.06c0 .01-.01.03-.02.03l-.5.26a.03.03 0 0 1-.04 0l-.51-.25c-.02-.01-.03-.02-.03-.04v-.52c0-.01.01-.03.02-.03l.5-.26a.03.03 0 0 1 .04 0l.5.26c.01.01.02.02.02.03l.02.52zm.14-3.88a.139.139 0 0 0-.09 0c-.03.01-.04.04-.04.07v2.03c0 .02-.01.04-.03.05-.02.01-.04.01-.06 0l-.37-.19a.191.191 0 0 0-.18 0l-1.47.76a.15.15 0 0 0-.09.14v1.53c0 .06.03.11.09.14l1.47.76c.05.03.12.03.18 0l1.47-.76c.05-.03.09-.08.09-.14v-3.8c0-.06-.04-.11-.09-.14l-.88-.45zm4.89 3.35c.05-.03.09-.08.09-.14v-.37a.15.15 0 0 0-.09-.14l-1.46-.76a.191.191 0 0 0-.18 0l-1.47.76a.15.15 0 0 0-.09.14v1.53c0 .06.03.11.09.14l1.46.75c.05.03.12.03.17 0l.88-.44c.03-.01.05-.04.05-.07s-.02-.06-.04-.07l-1.48-.76c-.03-.01-.04-.04-.04-.07v-.49c0-.03.02-.05.04-.07l.46-.24c.03-.01.06-.01.09 0l.46.24c.03.01.04.04.04.07v.38c0 .03.02.05.04.07.03.01.06.01.09 0l.89-.46z"/>
    <path fill-rule="evenodd" clip-rule="evenodd" fill="#679F63" d="M14.01 7.06c.01-.01.02-.01.03 0l.28.15c.01.01.02.02.02.03v.29c0 .01-.01.02-.02.03l-.28.15c-.01.01-.02.01-.03 0l-.28-.15c-.01-.01-.02-.02-.02-.03v-.3c0-.01.01-.02.02-.03l.28-.14z"/>
    <linearGradient id="a" gradientUnits="userSpaceOnUse" x1="70.965" y1="-58.497" x2="70.769" y2="-58.894" gradientTransform="matrix(6.1852 0 0 -6.1852 -432.427 -355.566)">
        <stop offset="0" style="stop-color:#40873f"/>
        <stop offset=".33" style="stop-color:#3e8b3d"/>
        <stop offset=".637" style="stop-color:#3f9637"/>
        <stop offset=".934" style="stop-color:#3daa35"/>
        <stop offset="1" style="stop-color:#44ac34"/>
    </linearGradient>
    <path fill="url(#a)" d="M6.06 5.72a.212.212 0 0 0-.19 0l-1.6.75c-.06.03-.09.08-.09.13v1.5c0 .06.04.11.09.14l1.59.75c.06.03.13.03.19 0l1.59-.75a.15.15 0 0 0 .09-.14V6.6c0-.06-.04-.11-.09-.14l-1.58-.74z"/>
    <linearGradient id="b" gradientUnits="userSpaceOnUse" x1="70.84" y1="-58.708" x2="71.458" y2="-58.255" gradientTransform="matrix(6.1852 0 0 -6.1852 -432.427 -355.566)">
        <stop offset=".138" style="stop-color:#40873f"/>
        <stop offset=".402" style="stop-color:#51a043"/>
        <stop offset=".713" style="stop-color:#67b54a"/>
        <stop offset=".908" style="stop-color:#6fb74d"/>
    </linearGradient>
    <path fill="url(#b)" d="m7.66 6.47-1.6-.75c-.02-.01-.04-.01-.05-.02L4.22 8.2c.01.01.03.03.05.04l1.6.75c.05.02.1.03.15.02L7.7 6.5c-.01-.02-.03-.03-.04-.03"/>
    <linearGradient id="c" gradientUnits="userSpaceOnUse" x1="70.579" y1="-58.675" x2="71.175" y2="-58.675" gradientTransform="matrix(6.1852 0 0 -6.1852 -432.427 -355.566)">
        <stop offset=".092" style="stop-color:#6fb74d"/>
        <stop offset=".287" style="stop-color:#67b54a"/>
        <stop offset=".598" style="stop-color:#51a043"/>
        <stop offset=".862" style="stop-color:#40873f"/>
    </linearGradient>
    <path fill="url(#c)" d="M7.66 8.24c.05-.02.08-.06.09-.1L6 5.7a.23.23 0 0 0-.14.02l-1.59.74 1.71 2.55c.03 0 .06-.01.08-.01l1.6-.76z"/>
</svg>