<svg xmlns="http://www.w3.org/2000/svg" viewBox="0 0 16 16" fill="currentColor"
    xml:space="preserve">
    <path d="M8.05 3.48c.74.02 1.48.09 2.21.22 1.09.2 2.14.55 3.14 1.14.65.39 1.25.86 1.74 1.52.34.46.6.97.72 1.59.14.76.01 1.47-.32 2.13-.34.68-.82 1.19-1.37 1.62-.79.63-1.66 1.04-2.57 1.33-.58.19-1.18.32-1.78.41-.74.11-1.47.15-2.21.12-1.57-.06-3.1-.38-4.55-1.13-.7-.36-1.35-.82-1.9-1.46-.4-.46-.72-.99-.88-1.65-.21-.88-.06-1.7.35-2.45.36-.65.84-1.14 1.38-1.55C2.82 4.69 3.7 4.29 4.62 4c.62-.2 1.26-.33 1.9-.4.51-.06 1.02-.08 1.53-.12zm-5.67 8.03c.02.01.04.01.05.01h.93c.06 0 .07-.05.08-.1.06-.4.13-.81.19-1.21.01-.06.02-.09.08-.08.31 0 .62 0 .93.01.55.01 1.01-.23 1.38-.72.41-.52.56-1.17.54-1.88-.03-.41-.14-.78-.41-1.04-.25-.24-.54-.35-.85-.35-.66-.02-1.33 0-1.99-.01-.05 0-.07.01-.07.07-.04.25-.09.5-.13.74-.2 1.22-.39 2.43-.59 3.65-.04.3-.09.6-.14.91zm7.22 0c.02.01.03.01.05.01h.93c.06 0 .07-.04.08-.1.06-.41.13-.81.19-1.22.01-.06.02-.08.07-.08.31 0 .61 0 .92.01.56.02 1.02-.23 1.4-.72.41-.53.56-1.17.53-1.88-.02-.4-.12-.75-.38-1.01-.25-.25-.55-.36-.87-.37-.66-.02-1.32 0-1.98-.01-.05 0-.07.02-.08.08-.03.21-.07.41-.1.62-.2 1.22-.39 2.43-.59 3.65-.06.34-.11.68-.17 1.02zm-3.27-1.38h.96c.07 0 .09-.03.1-.11.15-.92.3-1.84.45-2.77.01-.07.03-.1.09-.1h.78c.24 0 .31.1.28.39v.04c-.1.66-.2 1.31-.31 1.97-.03.2-.05.38-.08.57.02.01.03.01.04.01h.99c.05 0 .07-.03.08-.09.12-.9.25-1.8.38-2.71.04-.31-.02-.59-.21-.82-.21-.21-.44-.32-.7-.34-.32-.03-.64-.02-.96-.03h-.2c.07-.47.14-.92.21-1.4h-.11c-.27 0-.55.01-.82 0-.09 0-.12.04-.13.14-.22 1.37-.44 2.73-.65 4.1-.06.37-.13.75-.19 1.15z"/>
    <path d="m3.85 9.12.27-1.96h.49c.15 0 .29 0 .43.03.26.04.46.29.4.67-.02.18-.04.36-.09.54-.09.34-.28.55-.56.65-.31.11-.62.05-.94.07zm7.23-.02c.09-.64.17-1.29.26-1.94h.49c.15 0 .3 0 .44.03.24.05.45.28.39.68-.03.18-.05.36-.09.53-.09.34-.28.56-.56.66-.17.05-.78.08-.93.04z"/>
</svg>