<svg xmlns="http://www.w3.org/2000/svg" viewBox="0 0 16 16" xml:space="preserve">   xml:space="preserve">
    <path d="M11.81 12.26v1.47c0 .98-.61 1.83-1.51 2.11-.23.07-.46.11-.7.11-1.09 0-2.17.01-3.26 0-.64-.01-1.18-.26-1.61-.75-.3-.35-.48-.76-.52-1.23-.01-.08-.01-.17-.01-.25v-3.63c0-.56.21-1.02.61-1.38.33-.3.71-.46 1.15-.47.3-.01.59 0 .89 0h3.17c.47 0 .9-.11 1.29-.38.63-.44.96-1.06.96-1.85.01-.57 0-1.14 0-1.71 0-.1 0-.1.1-.1h1.14c.61 0 1.13.22 1.56.66.36.37.56.82.61 1.34.01.12.01.25.01.37 0 1.01-.01 2.03 0 3.04.01 1.22-.92 2.14-2 2.22-.09.01-.18.01-.27.01H8.18c-.12 0-.12-.03-.12.13v.3c1.24-.01 2.49-.01 3.75-.01zm-2.43 1.76c0 .43.34.77.76.77s.77-.35.77-.77c0-.43-.34-.77-.77-.77s-.76.34-.76.77z"/>
    <path d="M5.09 4.18h2.77c.1 0 .1 0 .1-.11v-.26c0-.05-.01-.08-.07-.07H4.3c-.11 0-.11 0-.11-.12V2.24c.01-.77.33-1.37.94-1.8.37-.26.79-.38 1.23-.39 1.11 0 2.21-.01 3.32 0 1.01.01 1.91.74 2.09 1.83.02.13.03.27.03.4v3.6c0 .83-.49 1.54-1.26 1.79-.18.06-.38.09-.57.09-1.32.02-2.65.02-3.97.01-.46 0-.89.11-1.27.37-.56.39-.9.92-.97 1.61-.02.17-.01.34-.01.5v1.46c0 .07-.02.09-.09.09-.42 0-.84.01-1.26-.01-.66-.03-1.19-.31-1.61-.84A2.23 2.23 0 0 1 .35 9.9c-.02-.07-.02-.15-.02-.23 0-1.12-.01-2.23 0-3.35 0-.6.23-1.1.65-1.51.36-.36.79-.56 1.28-.61.11-.01.22-.01.33-.01.83-.01 1.67-.01 2.5-.01zm1.53-2.19c0-.42-.34-.77-.75-.78a.77.77 0 0 0-.78.76c0 .44.33.77.77.77.42.01.76-.33.76-.75z"/>
</svg>