<svg
  xmlns="http://www.w3.org/2000/svg"
  xmlns:xlink="http://www.w3.org/1999/xlink"
  width="16"
  height="16"
  xml:space="preserve"
  ><defs><path id="a" d="M.51.73h14.88v14.75H.51z"></path></defs><clipPath
    id="b"><use xlink:href="#a" overflow="visible"></use></clipPath
  ><g clip-path="url(#b)"
    ><path
      fill="#8A1812"
      d="M12.15.93h.21c.03.07-.03.1-.07.13-.34.3-.69.59-1.04.89-.18.15-.36.3-.53.45-.03.02-.05.05-.09.06-.04.01-.08-.01-.11-.03-.18-.13-.91-.65-1.07-.76-.01-.01 0 0-.15-.1-.17-.11-.34-.23-.53-.36-.14-.1-.27-.19-.35-.24.65-.02 1.21-.02 1.67-.03 1.07-.02 1.84-.01 2.06-.01z"
    ></path><path
      fill="#B21917"
      d="M1.58 12.57c.02-.35.16-.26.53-1.06.23-.49.33-.87.74-1.2.03-.03.06-.05.08-.07.01 0 .02.01.03.02.11.21.16.45.23.67.22.69.44 1.38.65 2.07.17.56.35 1.12.53 1.68.01.04.02.08.02.13 0 .01-.01.02-.02.03-.15.01-.31.02-.49.01-.32-.02-.59-.08-.8-.14-.15-.05-.33-.13-.52-.25-.06-.06-.26-.21-.46-.45-.03-.04-.16-.2-.28-.45-.08-.2-.26-.59-.24-.99z"
    ></path><path
      fill="#8A1812"
      d="M1.51 7.86c.82 1.37 1.3 2.14 1.37 2.2.01.01.06.06.07.13 0 .02 0 .03-.01.05v.01c-.39.78-.6 1.15-.6 1.15-.61 1.06-.69 1.18-.75 1.16-.03-.01-.05-.18-.08-.53-.03-.37-.04-.55-.04-.56-.03-.71.01-1.8.01-1.8.01-.42.03-1.04.03-1.81z"
    ></path><path
      fill="#B21917"
      d="M2.93 10.25c-.06-.18-.18-.32-.27-.48-.35-.57-.71-1.14-1.06-1.71-.03-.05-.06-.09-.09-.14.03-.04.09-.13.16-.25 0 0 3.43-5.37 6.12-6.47.23-.1.47-.18.47-.18.05-.02.11-.03.16-.05.16.09.39.23.67.42.31.2.46.32.65.45.27.19.53.38.8.58.03.02.05.02.08.02.01.01.01.02.01.04-.36 1.15-.72 2.31-1.09 3.46 0 .01-.01.02-.02.03-.47.46-.95.92-1.43 1.37-.47.44-.93.89-1.4 1.32-.15.14-.3.27-.42.43-.02.01-.04.01-.05.02-.18.05-.35.11-.52.17-.57.21-1.14.4-1.71.61-.15.06-.46.23-.91.33a1.3 1.3 0 0 0-.15.03z"
    ></path><path
      fill="#B21917"
      d="M10.62 2.47v-.03c.29-.24.57-.48.86-.73.3-.25.59-.51.88-.76.17.01.39.05.64.14.15.05.46.17.77.45.09.08.27.26.43.52.17.28.23.53.29.74.02.06.05.24.09.49.06.38.02.95.01 1.1-.42-.19-.77-.35-1.03-.47-.45-.21-1.15-.53-2.02-.98-.38-.19-.7-.35-.92-.47zM4.71 14.86l-.34-.03c.08-.16.12-.33.17-.5.19-.59.37-1.18.55-1.77.14-.46.29-.92.43-1.38.18-.56.34-1.13.53-1.68.04-.1.06-.21.1-.32.02-.04.03-.08.06-.1h.05c.06-.02.1.01.15.03.97.41 1.95.82 2.92 1.23.51.21 1.01.43 1.52.64.05.02.1.04.14.07.02.02.03.04.04.07v.04c-.12.16-.27.29-.41.43-.58.58-1.2 1.1-1.86 1.57-.41.29-.83.55-1.26.79-.62.34-1.27.61-1.95.79-.16.05-.33.08-.5.09-.1 0-.22.02-.34.03z"
    ></path><path
      fill="#8A1812"
      d="M6.22 9.07c-.2.63-.39 1.26-.59 1.88-.14.46-.29.92-.44 1.37-.14.46-.28.92-.43 1.38l-.33 1.05c-.01.04-.02.07-.07.07-.07-.28-.16-.56-.25-.84-.29-.92-.57-1.84-.86-2.77-.1-.33-.21-.65-.31-.98.15-.1.32-.14.49-.2.34-.1.66-.21.99-.33.36-.12.72-.24 1.08-.37.24-.09.48-.19.72-.26z"
    ></path><path
      fill="#B21917"
      d="M11.03 11.12c-.02-.01-.02-.03-.02-.05-.07-.29-.16-.57-.25-.85-.4-1.34-.81-2.68-1.2-4.02-.02-.07-.08-.14-.04-.22v-.03c.03-.05.09-.06.14-.07.65-.2 1.31-.39 1.96-.6.73-.22 1.46-.44 2.19-.67.2-.06.4-.14.61-.17.12-.17.16-.2.18-.19.03.01-.01.12-.05.38-.02.1-.03.18-.04.24 0 0-.02.16-.05.29-.12.74-.54 1.72-.54 1.72-.33.79-.75 1.51-1.22 2.21a14.434 14.434 0 0 1-1.56 1.96c-.02.03-.05.07-.11.07z"
    ></path><path
      fill="#8A1812"
      d="M9.52 5.98c.24.79.47 1.57.71 2.36l.78 2.61c.01.04.04.09 0 .13l-3-1.26-1.74-.75c0-.02-.01-.04.01-.06.2-.2.41-.39.61-.59.27-.25.54-.5.81-.76.46-.44.92-.87 1.39-1.31.13-.11.25-.23.37-.35.02-.01.04-.02.06-.02zm4.9-1.51c-.38.11-.75.22-1.13.34-.75.23-1.5.46-2.26.69-.51.15-1.01.31-1.52.46.12-.36.23-.7.34-1.05.12-.38.23-.76.35-1.13.12-.4.25-.8.38-1.2.01-.04.02-.08.05-.11l1.92.93c.43.21.86.42 1.3.63.23.11.47.22.7.34.04.05-.01.06-.04.09-.03.01-.06.03-.09.01z"
    ></path><path
      fill="#791F1B"
      d="M14.04 11.35c-.03.49-.01.44-.05 1-.02.33-.04.55-.09 1.27l-.03.38c-.02.11-.07.09-.12.03-.19-.23-.4-.45-.61-.67-.31-.32-.61-.65-.92-.97-.22-.23-.43-.46-.64-.69-.18-.2-.35-.4-.56-.58.33-.35.66-.71.96-1.1.31-.4.6-.82.88-1.25.31-.47.58-.97.84-1.48.21-.42.37-.87.53-1.31.1-.27.15-.56.24-.83v.18c0 .21-.02.37-.03.41-.02.18-.05.57-.1 1.36-.04.53-.02.5-.08 1.51-.03.39-.04.58-.05.78-.08 1-.12 1.15-.17 1.96z"
    ></path><path
      fill="#9D1B17"
      d="M13.8 14.11c-.89.07-1.34.1-1.8.13-.11.01-.03.01-.42.04-.29.03-.8.09-1.92.14-.17.01-.42.02-.71.04-.34.02-.88.06-1.53.12-.79.08-.94.14-1.64.19-.32.03-.59.04-.76.05.3-.06.75-.16 1.31-.38 0 0 .04-.02.09-.04.27-.11.9-.37 1.66-.84.48-.3.94-.63 1.39-.99.42-.34.83-.7 1.21-1.1.12-.12.23-.24.35-.36.08.03.14.09.2.15.3.32.61.63.9.96.16.18.33.36.5.54.4.42.59.63.66.7.34.33.62.52.58.6-.01.05-.05.05-.07.05z"
    ></path></g
  ></svg>
