<svg xmlns="http://www.w3.org/2000/svg" viewBox="0 0 16 16" xml:space="preserve">
  <path d="M7.89.97c-.03.01-.14.17-.24.34-.27.44-.27.44-.62.06-.23-.24-.29-.29-.36-.29-.05 0-.11.02-.14.04s-.1.18-.17.35c-.14.4-.15.41-.23.43-.05.01-.15-.05-.38-.22-.18-.12-.34-.22-.38-.22-.14 0-.18.08-.25.49-.09.52-.08.52-.55.3-.19-.09-.37-.16-.4-.16s-.08.04-.12.07c-.07.08-.07.08-.05.47l.02.4-.08.04c-.06.03-.11.03-.4-.04-.38-.09-.46-.09-.54.02l-.06.07.08.33c.04.18.08.35.09.39 0 .03-.01.08-.03.11C3.04 4 3 4 2.64 4c-.6-.01-.63.04-.39.58.09.17.15.33.15.35 0 .1-.08.13-.42.19-.18.03-.35.05-.36.05-.01 0-.05.03-.08.06-.1.1-.07.2.16.53.29.41.29.41-.19.6-.55.21-.56.26-.14.66.39.37.39.36-.05.64-.33.21-.34.21-.35.33-.01.13-.01.14.39.38.39.24.39.25.01.61-.41.39-.4.45.15.66.48.18.48.18.19.59-.17.23-.22.33-.22.4 0 .13.07.17.49.24.35.06.43.09.43.19 0 .02-.06.18-.14.35-.26.55-.23.59.35.59.54 0 .53-.02.41.47-.08.37-.09.45-.01.53.06.06.18.05.54-.03.27-.07.32-.07.39-.04l.07.04-.02.39c-.02.4-.02.4.05.47.04.04.1.07.13.07s.21-.07.4-.15c.46-.21.46-.21.55.3.07.41.11.49.25.49.04 0 .2-.1.37-.22.29-.21.37-.24.45-.19.02.01.1.18.17.38.11.29.15.37.21.39.12.06.19.01.46-.29.33-.36.35-.36.62.08.3.49.38.48.68-.01.26-.43.26-.43.62-.05.24.25.29.29.37.29.05 0 .11-.02.14-.04.02-.02.1-.2.17-.39s.15-.35.16-.37c.08-.05.15-.01.45.19.17.12.33.22.37.22.14 0 .19-.1.25-.5.05-.34.06-.37.13-.41.07-.03.1-.02.41.12.19.08.37.15.4.15.03 0 .09-.03.13-.07l.06-.06-.02-.38c-.02-.36-.02-.38.04-.43.06-.05.07-.05.4.02.4.09.48.09.55.02.07-.07.07-.09-.03-.52-.11-.49-.12-.47.42-.47.37 0 .41-.01.46-.06.08-.09.06-.19-.1-.53-.08-.17-.15-.33-.14-.35 0-.1.08-.14.45-.19.22-.04.39-.08.42-.11.1-.09.06-.21-.17-.54-.29-.41-.29-.41.18-.58.56-.21.57-.27.16-.67-.39-.37-.39-.37.04-.63.51-.31.51-.39.01-.7-.43-.27-.43-.27-.04-.63.42-.4.4-.45-.14-.66-.48-.19-.48-.19-.19-.59.17-.24.22-.32.22-.4 0-.14-.06-.18-.49-.24-.35-.06-.43-.09-.43-.19 0-.02.06-.17.14-.34.15-.33.18-.47.09-.54-.07-.05-.13-.06-.47-.05-.35.01-.4 0-.45-.05-.05-.05-.05-.06.03-.41.1-.43.1-.44.02-.52-.09-.08-.14-.08-.53.01-.29.07-.33.07-.4.04l-.07-.04.02-.39.02-.4-.07-.07c-.04-.04-.1-.07-.13-.07s-.21.07-.39.16c-.31.14-.35.15-.41.12-.07-.04-.08-.07-.14-.42-.07-.41-.11-.49-.25-.49-.03 0-.2.1-.38.23-.28.2-.32.22-.39.2-.06-.04-.1-.08-.14-.19l-.13-.35c-.08-.23-.13-.28-.26-.28-.07 0-.13.05-.36.29-.35.37-.35.37-.62-.06-.1-.17-.21-.33-.24-.34-.07-.04-.14-.04-.2 0m.32 1.3c.31.22.15.74-.24.74-.37 0-.56-.45-.29-.7a.41.41 0 0 1 .53-.04m-.39 1.38c.2.08.29.03.75-.42l.35-.34.15.02c.46.06 1.39.47 1.92.85.49.35 1.14 1.05 1.41 1.54l.06.1-.26.59c-.14.33-.26.63-.26.67 0 .1.06.25.12.3.03.02.27.14.54.26l.5.22.02.13c.03.16.03.57.01.68l-.02.09h-.28c-.33 0-.3-.03-.32.37-.01.29-.08.45-.24.56-.27.18-.7.15-.89-.06-.03-.03-.08-.19-.12-.35-.11-.46-.26-.73-.57-.98a1 1 0 0 1-.18-.17c0-.01.11-.1.24-.2.47-.36.74-.77.77-1.19.06-.79-.57-1.52-1.5-1.76-.21-.05-.3-.05-3.03-.05-1.55 0-2.81-.01-2.81-.02 0-.03.34-.36.55-.53.55-.46 1.28-.82 2.02-1.02l.26-.07.37.37c.2.21.4.39.44.41m-4.63 2.4c.17.11.24.39.14.56-.15.26-.55.27-.7.02-.22-.36.21-.81.56-.58m9.98.02c.44.27.1.94-.37.73a.4.4 0 0 1-.02-.73c.12-.08.27-.07.39 0M4.5 7.72v1.66H3.04l-.06-.25c-.11-.5-.16-1.01-.13-1.43l.02-.3.5-.23c.31-.14.52-.25.54-.29.11-.17.1-.3-.06-.65l-.07-.16h.72v1.65m4.2-1.58c.31.08.48.25.48.48 0 .17-.08.28-.29.37-.15.07-.17.07-1.11.08l-.95.01V6.1h.86c.66 0 .88.01 1.01.04m-.32 2.38c.16.04.34.18.43.32.1.15.16.34.29.97.12.54.19.71.4.94.26.28.2.27 1.49.27.62 0 1.12.01 1.12.02 0 .02-.42.53-.44.53-.01 0-.23-.05-.49-.1-.75-.16-.78-.14-.95.67l-.11.52-.1.05c-.17.08-.71.25-.99.31-.46.1-.97.13-1.42.09-.76-.06-1.76-.36-1.8-.53-.01-.04-.06-.27-.11-.52s-.12-.49-.14-.53c-.12-.19-.25-.2-.83-.07-.23.04-.42.08-.43.08-.03 0-.43-.47-.43-.5 0-.01.96-.02 2.13-.03L8.13 11l.01-.76c.01-.54 0-.77-.03-.8-.02-.02-.16-.03-.66-.03h-.62v-.92h.73c.39 0 .76.01.82.03m-3.29 3.45c.34.21.18.75-.22.75-.41 0-.56-.54-.21-.75.11-.07.32-.07.43 0m6.21.02c.17.12.22.38.12.55-.27.44-.95.09-.72-.38.11-.23.41-.31.6-.17"></path>
</svg>