<svg xmlns="http://www.w3.org/2000/svg" viewBox="0 0 16 16" xml:space="preserve">
    <path d="M14.19 5.77v-.29c0-.23-.02-.44-.08-.66-.02-.23-.14-.44-.26-.61-.26-.39-.64-.73-1.15-.94-.26-.1-.5-.18-.78-.21-.28-.02-.54-.06-.82-.06H4.72c-.22-.02-.4 0-.62.03-.21.02-.41.07-.6.13l-.2.07c-.17.09-.34.2-.5.31-.05.01-.09.06-.17.11-.19.15-.35.33-.48.52-.12.21-.22.4-.26.63a7 7 0 0 0-.08.66v5.05c0 .23.02.44.08.66.02.23.14.44.26.63.26.4.64.73 1.15.94.26.1.5.18.78.21.28.02.54.06.82.06h6.21c.28 0 .54-.02.82-.06.28-.02.54-.11.78-.21.48-.21.9-.52 1.15-.94.12-.21.22-.4.26-.63.04-.23.08-.44.08-.66l-.01-4.74zm-1.93 5.39c-.56-.86-1.57-.66-2.09-.44a.35.35 0 0 1-.14.06h-.04c-1.05.49-2.55.5-4-.02C4.8 10.34 3.8 9.63 3.1 8.74c.33.21.7.39 1.09.52 1.57.6 3.1.55 4.22 0-1.56-.97-2.84-2.25-3.87-3.27-.2-.17-.38-.36-.54-.56 1.19.89 3.1 2.02 3.78 2.31-1.45-1.23-2.71-2.78-2.67-2.7C7.38 6.9 9.47 7.97 9.47 7.97c.08.02.14.06.2.1.02-.1.08-.18.12-.28.36-1.07-.02-2.31-.96-3.32 2.13 1.02 3.36 2.98 2.85 4.64-.02.02-.02.06-.02.11 1.02 1 .74 2.13.6 1.94"/>
</svg>