<svg xmlns="http://www.w3.org/2000/svg" viewBox="0 0 16 16" xml:space="preserve">
    <path fill="#4ABAEB" d="M8 3.44c-1.77 0-2.87 1.01-3.32 3.04C5.34 5.47 6.12 5.09 7 5.34c.5.14.86.56 1.26 1.03C8.92 7.12 9.67 8 11.32 8c1.77 0 2.87-1.01 3.32-3.04-.66 1.01-1.44 1.39-2.32 1.14-.5-.14-.86-.56-1.26-1.03C10.4 4.31 9.64 3.44 8 3.44zM4.68 8c-1.77 0-2.87 1.01-3.32 3.04.66-1.01 1.44-1.39 2.32-1.14.5.14.86.56 1.26 1.03.65.76 1.4 1.63 3.05 1.63 1.77 0 2.87-1.01 3.32-3.04-.66 1.01-1.44 1.39-2.32 1.14-.5-.14-.86-.56-1.26-1.03C7.08 8.88 6.33 8 4.68 8z"/>
</svg>