<svg xmlns="http://www.w3.org/2000/svg" viewBox="0 0 16 16" xml:space="preserve">
    <path d="M.52 14.1V2.04c0-.01.02-.01 0-.03v-.06c.02-.01.02-.01.03-.07.16-.6.54-.97 1.16-1.1.01 0 .04 0 .03-.03h.06c.01.03.02 0 .02 0h12.34c.01 0 .02.03.02 0h.06c.01.01.03.03.06.03.61.16 1 .53 1.13 1.14 0 .01 0 .04.02.03v.07c-.02.01 0 .01 0 .03V14.1c0 .01-.02.01 0 .03v.07c-.03 0-.02.01-.02.03-.1.57-.58 1.04-1.16 1.13-.01 0-.04 0-.03.03h-.06c-.01-.03-.02 0-.02 0H1.82c-.01 0-.02-.03-.02 0h-.06c-.01-.01-.02-.01-.06-.03-.61-.16-1-.53-1.13-1.14 0-.01 0-.04-.02-.03v-.07c.01-.01 0-.01-.01-.02zm13.43-4.98c.01-.01.01-.03.01-.04V7.84c0-.04-.02-.05-.05-.07-.19-.07-.39-.12-.59-.15a5.4 5.4 0 0 0-1.39-.05c-.38.03-.76.11-1.11.27-.41.19-.74.47-.93.88-.12.27-.15.56-.13.85.02.4.16.75.44 1.05.28.29.63.49 1.01.65.29.12.58.23.86.37.18.09.36.2.49.36.24.29.17.65-.15.85-.19.11-.4.16-.62.17-.73.04-1.37-.16-1.94-.6-.02-.01-.03-.04-.06-.04v1.38c0 .03.02.04.04.05.21.11.43.17.66.23.58.12 1.17.15 1.77.08.32-.04.63-.09.93-.23.51-.23.87-.57 1.01-1.12.04-.16.06-.33.06-.51.01-.45-.11-.85-.43-1.2-.17-.19-.38-.33-.61-.47-.31-.17-.64-.31-.97-.45-.23-.11-.46-.2-.65-.36-.04-.04-.09-.07-.12-.11-.25-.27-.21-.63.11-.83.18-.12.37-.16.58-.19.52-.05 1.02.04 1.5.25a.9.9 0 0 0 .28.22zm-8.12 2.36v2.54c0 .05.01.08.07.08h1.33c.09 0 .09 0 .09-.08V8.96c0-.07.01-.08.08-.08h1.73c.05-.01.07-.01.07-.08V7.76c0-.05-.01-.07-.06-.07h-5.1c-.05 0-.06.01-.06.07v1.05c0 .05.02.07.07.07h1.72c.06 0 .08.01.08.08-.02.83-.02 1.68-.02 2.52z"/>
</svg>