<svg xmlns="http://www.w3.org/2000/svg" viewBox="0 0 16 16" enable-background="new 0 0 16 16" xml:space="preserve" >
  <defs>
    <filter
      id="a"
      filterUnits="userSpaceOnUse"
      x=".25"
      y="2.07"
      width="15.5"
      height="11.85"
      ><feColorMatrix values="1 0 0 0 0 0 1 0 0 0 0 0 1 0 0 0 0 0 1 0"
      ></feColorMatrix></filter
    ></defs
  ><mask
    maskUnits="userSpaceOnUse"
    x=".25"
    y="2.07"
    width="15.5"
    height="11.85"
    id="b"
    ><path
      fill-rule="evenodd"
      clip-rule="evenodd"
      fill="#FFF"
      filter="url(#a)"
      d="M11.24 13.87c.24.07.52.07.77-.02l3.19-1.18c.34-.12.55-.38.55-.67V4c0-.29-.21-.55-.55-.67l-3.19-1.18c-.32-.12-.7-.09-.99.07-.04.02-.08.05-.12.08L4.81 6.58 2.15 5.02a.821.821 0 0 0-.83.03l-.85.6c-.28.2-.28.54 0 .73L2.78 8 .47 9.62c-.28.2-.28.54 0 .73l.85.6c.23.16.58.17.82.03L4.8 9.43l6.11 4.28c.1.07.21.13.33.16zm.64-8.57L7.25 8l4.63 2.7V5.3z"
    ></path></mask
  ><g mask="url(#b)"
    ><path
      fill="#0265AA"
      d="m15.2 3.33-3.19-1.18c-.37-.14-.81-.08-1.1.14L.46 9.62c-.28.2-.28.54 0 .73l.85.6c.23.16.58.17.82.03l12.58-7.34c.42-.25 1.03-.01 1.03.39V4c.01-.29-.2-.55-.54-.67z"
    ></path><path
      fill="#1D78BD"
      d="m15.2 12.67-3.19 1.18c-.37.14-.81.08-1.1-.14L.46 6.38c-.28-.2-.28-.54 0-.73l.85-.6c.23-.16.58-.17.82-.03l12.58 7.34c.42.25 1.03.01 1.03-.39V12c.01.29-.2.55-.54.67z"
    ></path><path
      fill="#3F96D2"
      d="M12.01 13.85c-.37.14-.81.08-1.1-.14.36.27.97.08.97-.31V2.6c0-.39-.61-.58-.97-.31.29-.22.73-.28 1.1-.14l3.19 1.18c.34.12.55.38.55.67v8c0 .29-.21.55-.55.67l-3.19 1.18z"
    ></path><g opacity=".25"
      ><linearGradient
        id="c"
        gradientUnits="userSpaceOnUse"
        x1="305.995"
        y1="-372.074"
        x2="305.995"
        y2="-383.926"
        gradientTransform="matrix(1 0 0 -1 -298 -370)"
        ><stop offset="0" style="stop-color:#fff"></stop><stop
          offset="1"
          style="stop-color:#fff;stop-opacity:0"></stop></linearGradient
      ><path
        fill-rule="evenodd"
        clip-rule="evenodd"
        fill="url(#c)"
        d="M11.23 13.87c.24.07.52.07.77-.02l3.19-1.18c.34-.12.55-.38.55-.67V4c0-.29-.21-.55-.55-.67L12 2.15c-.32-.12-.7-.09-.99.07-.04.02-.08.05-.12.08L4.8 6.58 2.14 5.02a.821.821 0 0 0-.83.03l-.85.6c-.28.2-.28.54 0 .73L2.77 8 .46 9.62c-.28.2-.28.54 0 .73l.85.6c.23.16.58.17.82.03L4.8 9.42l6.11 4.28c.09.08.2.14.32.17zm.64-8.57L7.24 8l4.63 2.7V5.3z"
      ></path>
      </g>
    </g>
</svg>
