<svg xmlns="http://www.w3.org/2000/svg" viewBox="0 0 16 16" xml:space="preserve">
    <g fill="#EF7A2D">
        <path d="M.76 3.63c.04-.11.16-.39.45-.54.13-.06.37-.14.6-.2 0 0 .02-.01.05-.01.32-.07 8.17-.04 12.07-.03h.03c.12.01.46.06.76.26.34.23.41.52.43.6v.1c0 .04.31 7.3 0 8.5-.01.04-.06.23-.23.45-.09.12-.31.39-.71.5-.16.04-.3.05-.37.05-3.91-.01-7.82 0-11.74 0h-.03c-.39 0-.68-.18-.78-.24-.36-.22-.47-.5-.5-.61l-.02-.04C.65 12.14.7 7.29.76 3.63zm7.23 2.89-.03-.09c-.24-.99-1.61-1.7-2.99-1.54-1.88.21-2.84 1.71-1.84 2.88.06.07.07.12.02.2-.35.49-.48 1.01-.41 1.55.1.77.66 1.32 1.66 1.59 1.01.27 1.97.15 2.77-.39.46-.31.74-.7.82-1.19.02.06.04.09.04.13.27 1.02 1.54 1.68 2.97 1.54 1.81-.17 2.83-1.61 1.96-2.76-.13-.17-.14-.29-.03-.47.31-.52.45-1.08.28-1.64-.23-.76-.91-1.26-1.95-1.45-1.05-.19-1.95.05-2.66.64-.34.28-.53.62-.61 1z"/>
        <path d="M8.31 8.54H7.12c-.52 0-.82.2-.87.57-.02.17-.04.35-.2.49-.25.22-.62.3-.99.21-.33-.08-.6-.34-.58-.61.05-.8.61-1.52 1.78-1.82.28-.08.57-.11.87-.11.62 0 1.24.02 1.86-.01.45-.03.73-.23.76-.56.01-.07 0-.14.02-.2.08-.34.45-.55.95-.53.44.02.77.28.79.61.02.47-.18.88-.59 1.25-.07.07-.07.09.05.12.38.1.53.26.54.55.01.24.01.48 0 .71-.02.32-.36.58-.8.6-.47.02-.87-.2-.94-.52-.04-.21-.02-.42-.02-.63 0-.1-.05-.13-.18-.12-.21.01-.43 0-.64 0h-.62zM6.24 6.87v.31c0 .07-.04.09-.13.09-.29-.01-.58.01-.88-.01-.3-.02-.55-.11-.67-.32-.12-.24-.14-.47.09-.68.24-.23.6-.31.95-.23.4.08.61.28.63.59.01.08 0 .17.01.25z"/>
    </g>
</svg>